<?xml version="1.0" standalone="no"?>
<!DOCTYPE svg PUBLIC "-//W3C//DTD SVG 20010904//EN"
 "http://www.w3.org/TR/2001/REC-SVG-20010904/DTD/svg10.dtd">
<svg version="1.0" xmlns="http://www.w3.org/2000/svg" 
 width="860.000000pt" height="522.000000pt" viewBox="0 0 860.000000 522.000000"
 preserveAspectRatio="xMidYMid meet">

<g transform="translate(0.000000,522.000000) scale(0.100000,-0.100000)"
fill="#ffdab9" stroke="white">
<path d="M6920 4797 c-25 -7 -77 -30 -115 -51 -191 -105 -323 -266 -401 -491
-15 -44 -30 -83 -34 -88 -3 -4 -26 76 -50 178 -24 102 -47 190 -50 195 -4 6
-18 6 -40 0 -19 -6 -48 -10 -64 -10 -28 0 -352 -95 -555 -164 -115 -38 -136
-60 -134 -139 0 -32 34 -171 87 -361 47 -170 84 -311 82 -313 -1 -2 -86 220
-187 492 -101 272 -187 495 -190 495 -4 0 -12 -20 -19 -45 -7 -25 -16 -45 -19
-45 -4 0 -14 15 -22 33 -12 27 -20 33 -51 35 -28 2 -39 -1 -47 -16 -5 -10
-101 -263 -212 -563 -111 -299 -203 -545 -204 -547 -2 -2 -196 107 -433 242
-236 136 -441 246 -454 246 -32 0 -48 -18 -48 -55 0 -16 47 -190 105 -385 57
-195 103 -356 101 -358 -2 -1 -16 8 -32 21 -57 47 -240 165 -309 200 -132 66
-203 82 -360 82 -118 0 -152 -4 -215 -23 -242 -75 -412 -266 -515 -577 -5 -16
-10 -11 -26 30 -22 58 -50 85 -89 85 -21 0 -30 7 -40 30 -40 97 -222 82 -455
-38 -74 -38 -108 -64 -191 -147 -55 -55 -122 -134 -149 -175 -68 -105 -141
-263 -165 -355 -43 -167 -45 -479 -6 -700 13 -72 13 -81 -1 -92 -19 -15 -97
-28 -112 -18 -28 17 -2 116 49 190 l31 45 -28 25 c-34 30 -38 30 -70 5 -31
-24 -63 -26 -63 -5 0 39 64 117 117 144 33 17 32 67 -2 83 -54 24 -180 -93
-205 -191 -11 -44 -12 -44 -23 -20 -17 34 -79 39 -119 9 -16 -12 -31 -20 -32
-18 -2 1 -13 77 -25 168 -12 90 -27 170 -33 177 -14 18 -53 16 -68 -3 -11 -12
-10 -38 3 -143 9 -70 17 -134 17 -143 0 -10 -74 -63 -189 -138 -109 -70 -191
-129 -194 -140 -6 -24 19 -60 42 -60 10 0 53 23 96 51 42 27 79 48 81 46 2 -2
36 -161 74 -353 39 -191 72 -356 75 -365 3 -9 15 -19 27 -22 32 -9 58 10 58
41 0 15 -34 192 -75 392 l-74 365 21 16 c12 9 34 24 49 33 l27 16 6 -42 c4
-24 27 -150 53 -281 l46 -238 41 6 c22 4 43 9 45 11 3 3 -3 44 -12 92 -28 150
-40 263 -35 344 8 128 22 116 47 -39 41 -253 77 -372 116 -387 55 -21 100 16
76 63 -7 11 -16 21 -21 21 -15 0 -39 89 -65 245 -14 83 -28 160 -30 173 -6 23
-6 23 14 3 11 -11 31 -23 45 -27 22 -5 23 -9 15 -37 -13 -47 -11 -124 5 -156
8 -15 26 -32 41 -39 35 -16 114 -15 164 3 33 11 41 12 41 1 0 -26 60 -159 106
-234 109 -180 273 -361 415 -459 234 -161 462 -242 643 -230 244 16 612 207
656 341 9 29 6 47 -19 127 -17 52 -46 134 -65 183 -20 50 -34 91 -32 93 1 2
23 -8 47 -21 70 -39 337 -136 417 -152 333 -64 636 112 774 449 l32 78 11 -31
c14 -42 42 -62 77 -55 25 6 28 3 38 -34 6 -23 16 -41 22 -41 9 0 620 178 635
185 2 1 -383 1063 -412 1138 -14 35 -14 37 2 28 38 -20 130 -78 177 -110 30
-21 51 -30 55 -23 3 6 19 67 35 136 16 69 32 126 36 126 4 0 98 -231 211 -512
l204 -513 33 -3 c18 -2 57 6 87 17 30 11 55 20 56 18 0 -1 9 -176 18 -390 14
-321 20 -390 33 -403 14 -14 127 0 1181 145 641 89 1173 164 1181 167 7 3 16
13 18 22 2 9 -4 215 -15 457 -14 342 -21 443 -32 454 -12 12 -98 3 -612 -68
-329 -45 -614 -84 -633 -87 -29 -4 -31 -3 -12 5 18 9 22 18 22 54 0 34 -40
204 -65 275 -3 7 23 -7 58 -32 34 -24 91 -59 127 -77 36 -18 92 -46 125 -63
54 -27 71 -31 171 -34 142 -5 239 18 383 90 118 59 241 164 241 206 0 27 -157
779 -165 793 -12 18 -33 8 -45 -22 l-13 -31 -12 30 c-12 28 -32 42 -59 42 -7
0 -47 -33 -87 -74 -93 -92 -163 -130 -239 -129 -49 0 -57 3 -83 34 -67 80
-116 227 -137 407 -19 162 11 282 82 335 39 29 131 34 200 12 67 -22 175 -76
244 -122 65 -43 87 -40 79 14 -4 21 -25 203 -49 404 -24 201 -46 371 -50 378
-12 19 -254 137 -331 161 -87 27 -240 36 -305 17z m605 -231 c3 -17 21 -168
40 -336 19 -168 38 -320 41 -338 l5 -33 -83 45 c-130 70 -212 98 -288 98 -36
-1 -79 -6 -95 -12 -110 -41 -160 -190 -136 -401 13 -114 41 -234 72 -306 l20
-48 -24 24 c-83 77 -156 334 -144 502 10 133 60 226 146 277 42 25 55 27 152
27 103 0 109 -2 180 -38 105 -53 139 -48 139 22 0 27 -78 492 -94 563 -3 15
-1 15 30 1 25 -12 35 -25 39 -47z m-1232 -293 c49 -201 61 -293 38 -293 -4 0
-33 107 -65 238 -31 130 -60 245 -62 254 -3 10 2 18 13 20 10 3 19 4 20 3 1
-1 26 -100 56 -222z m-744 -593 c159 -428 288 -792 316 -889 25 -90 44 -165
43 -166 -6 -5 -648 1730 -648 1751 0 19 10 38 16 31 1 -1 124 -328 273 -727z
m2225 -763 c38 -182 71 -339 73 -348 6 -22 -49 -83 -116 -128 -150 -102 -296
-152 -440 -150 -130 2 -154 14 -41 22 141 9 259 53 387 144 80 56 133 124 133
170 0 19 -21 155 -46 303 -42 244 -48 320 -26 320 4 0 38 -150 76 -333z
m-2694 -8 c0 -18 -53 -241 -65 -278 -4 -10 -9 -10 -18 -2 -11 9 -6 38 27 160
37 135 56 175 56 120z m-2646 -55 c36 -14 101 -254 69 -254 -5 0 -25 53 -46
118 -21 64 -40 123 -43 130 -6 13 -3 15 20 6z m2511 -701 c118 -328 215 -597
213 -598 -2 -2 -126 -40 -277 -85 -276 -82 -290 -84 -291 -45 0 6 106 42 236
80 130 39 244 75 252 81 8 6 15 24 14 40 0 16 -92 279 -204 585 -176 480 -201
555 -182 547 18 -9 61 -116 239 -605z m-1647 518 c-75 -48 -126 -130 -154
-248 -28 -119 -2 -300 70 -478 43 -105 23 -94 -33 18 -81 163 -129 353 -116
456 20 163 120 280 239 281 l40 0 -46 -29z m173 -29 c120 -76 230 -284 275
-520 19 -100 18 -148 -6 -226 -50 -160 -170 -229 -313 -180 -35 12 -55 27 -76
58 -114 167 -198 460 -173 605 22 126 92 232 177 272 53 25 63 24 116 -9z
m3294 -265 c21 -76 38 -154 39 -174 l1 -36 -115 -39 c-95 -33 -326 -79 -385
-77 -5 0 82 29 195 66 113 36 211 70 218 75 21 17 14 117 -18 246 -16 68 -30
126 -30 130 0 4 13 -7 28 -23 22 -23 37 -62 67 -168z m-4331 -176 c3 -4 -12
-16 -34 -26 -52 -23 -141 -117 -174 -183 -65 -128 -74 -307 -23 -467 30 -93
14 -81 -39 30 -128 265 -48 562 173 641 44 15 89 18 97 5z m5576 -23 c0 -7 7
-177 16 -377 9 -199 12 -366 7 -370 -7 -7 -2098 -298 -2178 -304 l-30 -2 -12
290 c-6 160 -13 326 -15 371 l-4 81 30 12 c24 10 2098 306 2169 310 9 1 17 -5
17 -11z m-5438 -102 c33 -116 88 -266 139 -375 39 -83 39 -84 24 -128 -8 -24
-15 -49 -15 -56 0 -7 -13 -40 -29 -73 -43 -90 -109 -135 -201 -136 -63 0 -125
20 -156 50 -61 62 -124 257 -124 387 0 121 44 237 122 321 44 47 146 104 188
104 24 0 28 -6 52 -94z m1818 -421 l22 -80 -34 -92 c-19 -50 -50 -117 -69
-149 -43 -73 -156 -193 -218 -234 -115 -73 -257 -108 -390 -95 l-76 8 95 17
c165 30 273 86 389 202 100 100 175 234 222 398 11 36 19 78 19 94 0 46 15 20
40 -69z m-1245 -593 c92 -232 106 -281 89 -313 -52 -101 -321 -249 -534 -295
-80 -17 -134 -17 -219 -2 l-66 12 80 7 c48 4 126 22 194 44 271 88 481 242
481 354 0 46 -37 161 -105 334 -5 13 -3 16 8 12 8 -4 40 -72 72 -153z"/>
<path d="M7650 2003 c-57 -7 -106 -16 -108 -18 -5 -5 -72 -493 -72 -526 0 -37
24 -55 58 -43 26 9 28 15 42 119 l16 110 67 7 c181 18 268 68 296 173 19 73
-10 144 -71 176 -43 22 -81 22 -228 2z m188 -89 c43 -30 18 -105 -48 -139 -31
-16 -177 -41 -186 -32 -3 3 0 41 6 85 l12 79 76 10 c112 14 116 14 140 -3z"/>
<path d="M7122 1910 c-33 -17 -77 -49 -97 -71 -39 -44 -95 -151 -95 -183 0
-11 -2 -17 -5 -14 -5 5 9 129 21 189 9 47 -46 78 -79 45 -9 -9 -19 -58 -27
-125 -7 -61 -15 -111 -18 -111 -4 0 -62 -7 -130 -16 -68 -9 -126 -14 -129 -11
-2 3 1 48 8 101 10 77 10 98 -1 110 -15 19 -54 21 -68 4 -7 -10 -42 -200 -42
-232 0 -2 -9 -6 -20 -9 -24 -6 -28 -52 -6 -76 11 -14 11 -31 0 -111 -15 -110
-12 -128 23 -136 42 -11 57 19 72 139 11 94 15 106 34 110 42 10 237 30 242
25 3 -3 0 -48 -7 -101 -10 -78 -9 -98 1 -111 16 -19 54 -21 69 -3 6 6 18 75
29 152 18 139 18 139 24 78 27 -279 378 -268 512 15 55 117 41 248 -35 319
-66 62 -179 71 -276 23z m209 -96 c72 -69 55 -184 -44 -292 -72 -77 -151 -101
-215 -62 -43 27 -66 81 -58 138 25 185 215 314 317 216z"/>
<path d="M6201 1829 c-48 -14 -110 -58 -127 -90 -38 -74 -7 -156 79 -208 77
-46 127 -89 127 -108 0 -8 -15 -30 -33 -48 -43 -43 -126 -64 -181 -45 -57 18
-80 88 -40 121 39 32 -1 103 -45 79 -76 -40 -91 -157 -29 -235 106 -136 418
-42 418 125 0 64 -38 114 -124 164 -105 61 -119 96 -54 136 50 31 110 27 151
-10 78 -68 137 -1 64 73 -51 51 -128 68 -206 46z"/>
</g>
</svg>
